# xmcd
#
# Track frame offsets:
# 150
# 5071
# 21653
# 35076
# 53135
# 65732
# 81802
# 98102
# 115213
# 131802
# 147092
# 163635
# 188029
# 208149
# 215065
#
# Disc length: 3084 seconds
#
#
# Revision: 0
# Processed by: cddbd v1.5.2PL0 Copyright (c) Steve Scherf et al.
# Submitted via: FreeRIP 2.951 
#
DISCID=e60c0a0f
DTITLE=Zion I and The Grouch - Zion I and The Grouch Are Heroes in the City of Dope 
DYEAR=2006
DGENRE=Hip-Hop
TTITLE0=Noon Time
TTITLE1=Hit Em
TTITLE2=Lift Me Up
TTITLE3=Trains And Planes
TTITLE4=Current Affairs
TTITLE5=Too Much
TTITLE6=The Faint Of Heart
TTITLE7=Make U Fly
TTITLE8=Smack
TTITLE9=Open The Door
TTITLE10=Trigger
TTITLE11=Digital Dirt
TTITLE12=10 Fingers 10 Toes 10lbs 10oz
TTITLE13=Hero
TTITLE14=Band Lands
EXTD=
EXTT0=
EXTT1=
EXTT2=
EXTT3=
EXTT4=
EXTT5=
EXTT6=
EXTT7=
EXTT8=
EXTT9=
EXTT10=
EXTT11=
EXTT12=
EXTT13=
EXTT14=
PLAYORDER=
